<svg xmlns="http://www.w3.org/2000/svg" width="360.002" height="85" viewBox="0 0 360.002 85"><defs><style>.a{fill:#fff}.b{fill:#0c263d}.c{fill:#e5e5e5}.d{fill:#00afff}</style></defs><rect width="360" height="55" class="a" transform="translate(0.002 30)"/><path d="M75.53,603c-2.914,0-4.171,31.172-4.171,31.172H79.7S78.444,603,75.53,603Z" class="b" transform="translate(-51.027 -555.188)"/><path d="M65.53,609c-2.085,0-4.171,31.172-4.171,31.172H69.7S67.615,609,65.53,609Z" class="b" transform="translate(-46.418 -558.553)"/><path d="M53.53,608.981c-2.966-3.727-4.171,29.29-4.171,29.29H57.7S56.5,612.708,53.53,608.981Z" class="b" transform="translate(-40.686 -553.553)"/><path d="M647.53,581c-4.061,0-3.171,31.172-3.171,31.172H649.7S651.591,581,647.53,581Z" class="b" transform="translate(-374.896 -548.848)"/><path d="M660.53,581c-2.085,0-4.171,31.172-4.171,31.172H664.7S662.615,581,660.53,581Z" class="b" transform="translate(-382.188 -550.848)"/><path d="M670.53,596c-2.085,0-4.171,31.172-4.171,31.172H674.7S672.615,596,670.53,596Z" class="b" transform="translate(-385.798 -559.262)"/><path d="M683.53,596c-3.448,0-4.171,31.172-4.171,31.172H687.7S686.978,596,683.53,596Z" class="b" transform="translate(-392.09 -559.262)"/><path d="M739.53,607c-2.085,0-4.171,31.172-4.171,31.172H743.7S741.615,607,739.53,607Z" class="b" transform="translate(-428.504 -563.434)"/><path d="M752.53,607c-3.157,0-4.171,31.172-4.171,31.172H756.7S755.687,607,752.53,607Z" class="b" transform="translate(-435.797 -564.434)"/><path d="M766.88,648.342h-7.051l.237-1.756,1.484-11.09.048-.382s.836-13.43,1.756-13.114,1.923,14.379,1.923,14.379l.931,6.95Z" class="b" transform="translate(-441.231 -571.848)"/><path d="M779.88,648.342h-7.051l.672-5.014.874-6.515s.956-15.066,1.98-14.813,2.116,15.823,2.116,15.823v0l.619,4.623Z" class="b" transform="translate(-448.523 -570.848)"/><path d="M792.815,646.1H785.3l.786-5.892.58-4.324S785.943,617.2,789.057,618s2.564,19.151,2.564,19.151l.29,2.178Z" class="b" transform="translate(-454.518 -569.602)"/><path d="M805.815,646.1H798.3l.9-6.77.272-2.033s1.278-19.4,2.582-19.3,2.634,19.7,2.634,19.7l.141,1.027Z" class="b" transform="translate(-461.811 -567.602)"/><path d="M816.059,654.513H810.3l1-7.442.127-.957s.811-13.621,1.756-13.114,2.024,15.142,2.024,15.142l.83,6.186Z" class="b" transform="translate(-468.542 -573.018)"/><path d="M829.059,654.513H823.3l.026-.184.768-5.743s-2.316-16.765,2.086-15.586,2.252,16.82,2.252,16.82Z" class="b" transform="translate(-475.835 -571.018)"/><path d="M662.69,563.627c-55.056-21.848-115.677-35.408-178.746-35.408a482.659,482.659,0,0,0-181.256,35.408Z" class="c" transform="translate(-302.688 -478.627)"/><path d="M481.181,765.2s.3-6.353,6.518-5.614" class="b" transform="translate(-354.218 -689.32)"/><circle cx="3.111" cy="3.111" r="3.111" class="d" transform="translate(122.097 63.609)"/><rect width=".878" height="6.147" class="b" transform="translate(124.701 71.959)"/><path d="M739.182,768.2s.3-6.353,6.518-5.615" class="b" transform="translate(-498.945 -691.004)"/><path d="M739.182,768.2s.3-6.353,6.518-5.615" class="b" transform="translate(-437.945 -694.004)"/><circle cx="3.111" cy="3.111" r="3.111" class="d" transform="translate(235.369 64.926)"/><circle cx="3.111" cy="3.111" r="3.111" class="d" transform="translate(296.369 61.926)"/><rect width=".878" height="6.147" class="b" transform="translate(237.974 73.275)"/><rect width=".878" height="6.147" class="b" transform="translate(298.974 70.275)"/><path d="M314.181,743.2s.3-6.353,6.518-5.614" class="b" transform="translate(-260.538 -675.979)"/><circle cx="3.111" cy="3.111" r="3.111" class="d" transform="translate(48.777 54.951)"/><rect width=".878" height="6.147" class="b" transform="translate(51.382 63.299)"/><path d="M423.181,724.2s.3-6.353,6.518-5.615" class="b" transform="translate(-321.682 -668.322)"/><circle cx="3.111" cy="3.111" r="3.111" class="d" transform="translate(96.632 43.607)"/><rect width=".878" height="6.147" class="b" transform="translate(99.237 51.959)"/><path d="M696.181,751.2s.3-6.353,6.518-5.614" class="b" transform="translate(-474.824 -681.467)"/><circle cx="3.111" cy="3.111" r="3.111" class="d" transform="translate(216.491 57.463)"/><rect width=".878" height="6.147" class="b" transform="translate(219.095 65.813)"/><path d="M488.109,140.8l-4.042-3.233c3.14-.346,4.43,1.366,4.958,2.721a6.884,6.884,0,0,1,5.123.316l-8.087,2.936a6.119,6.119,0,0,1,2.047-2.741Z" class="b" transform="translate(-238.54 -137.523)"/><path d="M628.109,215.8l-4.042-3.233c3.14-.346,4.43,1.366,4.958,2.721a6.884,6.884,0,0,1,5.123.316l-8.087,2.936A6.119,6.119,0,0,1,628.109,215.8Z" class="b" transform="translate(-547.362 -198.205)"/><path d="M477.109,279.8l-4.042-3.233c3.14-.346,4.43,1.366,4.958,2.721a6.884,6.884,0,0,1,5.123.316l-8.087,2.936A6.119,6.119,0,0,1,477.109,279.8Z" class="b" transform="translate(-288.541 -254.105)"/></svg>