<svg xmlns="http://www.w3.org/2000/svg" width="19.566" height="19.567" viewBox="0 0 19.566 19.567"><defs><style>.a{fill:transparent;stroke:transparent}.b{fill:#fff}.c{stroke:none}.d{fill:none}</style></defs><g class="a"><rect width="19.566" height="19.567" class="c"/><rect width="18.566" height="18.567" x=".5" y=".5" class="d"/></g><g><path d="M0,0A1.013,1.013,0,0,0,0-1.432a1.013,1.013,0,0,0-1.432,0L-7.486,4.623l-6.055-6.055a1.012,1.012,0,0,0-1.432,0,1.013,1.013,0,0,0,0,1.432l6.055,6.054-6.055,6.055a1.013,1.013,0,0,0,0,1.432,1.009,1.009,0,0,0,.716.3,1.009,1.009,0,0,0,.716-.3l6.055-6.055,6.054,6.054a1.009,1.009,0,0,0,.716.3A1.009,1.009,0,0,0,0,13.54a1.012,1.012,0,0,0,0-1.431L-6.054,6.054Z" class="b" transform="translate(17.269 3.729)"/></g></svg>