<svg xmlns="http://www.w3.org/2000/svg" xmlns:xlink="http://www.w3.org/1999/xlink" width="82.96" height="76.279" viewBox="0 0 82.96 76.279"><defs><style>.a{fill:#00afff}</style><clipPath id="a"><rect width="82.96" height="76.279" class="a"/></clipPath></defs><g><g><path d="M-20.274,16.388a3.2,3.2,0,0,1,3.2-3.2H32.988L17.663-2.135a3.2,3.2,0,0,1,0-4.523,3.2,3.2,0,0,1,4.523,0L42.822,13.982a3.166,3.166,0,0,1,.922,2.334h0c0,.025.013.047.013.073a3.053,3.053,0,0,1-.174.869,2.774,2.774,0,0,1-.066.322,3.164,3.164,0,0,1-.682,1.052c-.006.006-.006.013-.013.019L22.192,39.28A3.2,3.2,0,1,1,17.67,34.76L32.842,19.585h-49.92a3.2,3.2,0,0,1-3.2-3.2" class="a" transform="translate(-82.96 -115.808) translate(82.96 129.814) translate(20.274 7.593)"/></g></g></svg>