<svg xmlns="http://www.w3.org/2000/svg" width="209" height="87" viewBox="0 0 209 87"><defs><style>.a{fill:#eee}.b{fill:#0c263d}.c{fill:#3f3d56}.d,.e,.f{fill:#00afff}.e{opacity:.2}.f{opacity:.5}</style></defs><ellipse cx="104.5" cy="5.161" class="a" rx="104.5" ry="5.161" transform="translate(0 76.679)"/><g transform="translate(38.529)"><ellipse cx="3.559" cy="2.061" class="b" rx="3.559" ry="2.061" transform="translate(9.132 6.463)"/><path d="M452.63,336.28H372.638l1.967-7.081,1.7-6.126,2.889-10.4h67.066l2.806,10.4,1.92,7.119Z" class="c" transform="translate(-346.411 -312.676)"/><path d="M456.643,360.088H380.261v-.993l1.7-6.126h72.761Z" class="b" transform="translate(-352.067 -342.572)"/><rect width="10.397" height="8.055" class="d" transform="translate(7.493 7.869)"/><rect width="132.633" height="70.059" class="c" transform="translate(0 11.802)"/><rect width="132.633" height="17.609" class="d" transform="translate(0 37.959)"/><circle cx="32.877" cy="32.877" r="32.877" class="b" transform="translate(33.439 13.578)"/><circle cx="30.536" cy="30.536" r="30.536" class="c" transform="translate(35.781 15.92)"/><circle cx="23.23" cy="23.23" r="23.23" class="b" transform="translate(43.087 23.225)"/><circle cx="2.248" cy="2.248" r="2.248" class="e" transform="translate(109.966 14.286)"/><circle cx="2.248" cy="2.248" r="2.248" class="f" transform="translate(116.71 14.286)"/><circle cx="2.248" cy="2.248" r="2.248" class="d" transform="translate(123.454 14.286)"/><rect width="15.736" height="7.119" class="b" transform="translate(58.355 1.686)"/></g></svg>